<svg xmlns="http://www.w3.org/2000/svg" width="20" height="20" viewBox="0 0 20 20" fill="none">
<g clip-path="url(#clip0_393_2537)">
<path d="M12.432 18.3016C13.2823 18.8447 14.2926 19.0813 15.2956 18.9722C16.2986 18.863 17.2344 18.4148 17.948 17.7016L18.568 17.0816C18.8444 16.8049 18.9996 16.4297 18.9996 16.0386C18.9996 15.6475 18.8444 15.2724 18.568 14.9956L15.968 12.3956C15.6909 12.1191 15.3155 11.9638 14.924 11.9638C14.5326 11.9638 14.1571 12.1191 13.88 12.3956C13.6033 12.672 13.2281 12.8272 12.837 12.8272C12.4459 12.8272 12.0708 12.672 11.794 12.3956L7.61202 8.21362C7.33563 7.93687 7.1804 7.56174 7.1804 7.17062C7.1804 6.7795 7.33563 6.40437 7.61202 6.12762C7.88852 5.85053 8.04381 5.47507 8.04381 5.08362C8.04381 4.69217 7.88852 4.31671 7.61202 4.03962L5.00002 1.43162C4.72327 1.15524 4.34814 1 3.95702 1C3.56589 1 3.19076 1.15524 2.91402 1.43162L2.29402 2.05162C1.58049 2.76509 1.13204 3.70087 1.02292 4.70399C0.913806 5.70712 1.15057 6.71742 1.69402 7.56762C4.55432 11.7991 8.19946 15.4429 12.432 18.3016Z" stroke="#1A1A1A" stroke-opacity="0.61" stroke-width="2" stroke-linecap="round" stroke-linejoin="round"/>
</g>
<defs>
<clipPath id="clip0_393_2537">
<rect width="20" height="20" fill="white"/>
</clipPath>
</defs>
</svg>